FFmpeg version SVN-r25716, Copyright (c) 2000-2010 the FFmpeg developers  built on Nov 10 2010 12:23:18 with gcc 4.1.2 20080704 (Red Hat 4.1.2-48)  configuration: --enable-libmp3lame --enable-shared --disable-mmx --arch=x86_64  libavutil     50.33. 0 / 50.33. 0  libavcore      0.12. 1 /  0.12. 1  libavcodec    52.94. 4 / 52.94. 4  libavformat   52.84. 0 / 52.84. 0  libavdevice   52. 2. 2 / 52. 2. 2  libavfilter    1.59. 0 /  1.59. 0  libswscale     0.12. 0 /  0.12. 0Seems stream 0 codec frame rate differs from container frame rate: 600.00 (600/1) -> 8.00 (8/1)Input #0, mov,mp4,m4a,3gp,3g2,mj2, from '/RAID10/data/converted_video_files/22708.mov':  Metadata:    major_brand     : qt      minor_version   : 537199360    compatible_brands: qt    Duration: 00:00:11.25, start: 0.000000, bitrate: 1244 kb/s    Stream #0.0(eng): Video: svq3, yuvj420p, 330x253, 1243 kb/s, 8 fps, 8 tbr, 600 tbn, 600 tbc[buffer @ 0xe515f80] w:330 h:253 pixfmt:yuvj420p[ffsink @ 0xe519380] auto-inserting filter 'auto-inserted scaler 0' between the filter 'src' and the filter 'out'[scale @ 0xe518f00] w:330 h:253 fmt:yuvj420p -> w:330 h:253 fmt:yuv420p flags:0x4Output #0, flv, to '/RAID10/data/converted_video_files/22708.flv':  Metadata:    encoder         : Lavf52.84.0    Stream #0.0(eng): Video: flv, yuv420p, 330x253, q=2-31, 600 kb/s, 1k tbn, 24 tbcStream mapping:  Stream #0.0 -> #0.0Press [q] to stop encodingframe=   86 fps=  0 q=5.3 size=     518kB time=10.67 bitrate= 397.8kbits/s    frame=   90 fps=  0 q=5.1 Lsize=     538kB time=11.17 bitrate= 394.7kbits/s    video:536kB audio:0kB global headers:0kB muxing overhead 0.300356%